<svg width="38" height="38" viewBox="0 0 38 38" fill="none" xmlns="http://www.w3.org/2000/svg">
<path d="M26.8839 27.2325L27.9394 26.4795C28.2221 26.2779 28.4407 25.9991 28.5691 25.6765C28.6974 25.3538 28.7301 25.001 28.6632 24.6603C28.5963 24.3196 28.4326 24.0054 28.1918 23.7553C27.9509 23.5052 27.6431 23.3297 27.3052 23.25C27.3913 22.7926 27.2979 22.3197 27.0443 21.9294C26.7908 21.5392 26.3966 21.2617 25.9437 21.1546C26.0298 20.6972 25.9364 20.2243 25.6828 19.834C25.4293 19.4438 25.0351 19.1663 24.5822 19.0592C24.6608 18.6425 24.5904 18.2114 24.3833 17.8413C24.1763 17.4713 23.8457 17.1858 23.4495 17.0347C23.5789 16.398 23.4802 15.736 23.1708 15.1647L22.8277 14.5261C22.7581 14.3971 22.6405 14.3005 22.5003 14.2575L33.5367 0.997064C33.61 0.908981 33.6544 0.800489 33.664 0.686292C33.6736 0.572096 33.6478 0.457717 33.5902 0.358658C33.5326 0.2596 33.4459 0.18065 33.3419 0.132512C33.2379 0.0843729 33.1216 0.0693722 33.0088 0.0895427L16.1188 3.11039C15.8727 2.76597 15.5075 2.52517 15.094 2.43465C14.6805 2.34413 14.2481 2.41034 13.8806 2.62045C13.5131 2.83055 13.2367 3.1696 13.105 3.57187C12.9732 3.97415 12.9955 4.41101 13.1675 4.7978L18.3929 16.5484L14.6243 18.8547C14.4057 18.9894 14.2207 19.1722 14.0835 19.3892C13.9462 19.6062 13.8604 19.8517 13.8324 20.107L13.3705 24.4434L3.20968 32.2155L3.88862 33.1032L14.2402 25.1852C14.3004 25.1391 14.3507 25.0812 14.3878 25.0151C14.425 24.9489 14.4483 24.8759 14.4563 24.8005L14.9436 20.2253C14.953 20.1402 14.9816 20.0584 15.0274 19.9861C15.0731 19.9137 15.1348 19.8528 15.2076 19.8079L22.1231 15.5758L22.1864 15.6936C22.2921 15.8903 22.3574 16.106 22.3785 16.3282C22.3997 16.5504 22.3763 16.7746 22.3096 16.9876C22.243 17.2006 22.1345 17.3982 21.9904 17.5687C21.8464 17.7393 21.6698 17.8793 21.4709 17.9806L19.2525 19.1113C19.1274 19.175 19.0309 19.2836 18.9821 19.4153C18.9334 19.547 18.9361 19.6922 18.9896 19.822C19.3859 20.7793 19.4489 21.842 19.1684 22.8394C18.888 23.8369 18.2803 24.711 17.4431 25.3214L17.0904 25.5795L17.7504 26.4814L18.103 26.2233C18.9664 25.5932 19.6367 24.7345 20.0383 23.7439C20.2912 24.1082 20.6706 24.3655 21.1026 24.4658C21.0165 24.9231 21.1099 25.3961 21.3635 25.7863C21.617 26.1766 22.0112 26.4541 22.4641 26.5612C22.4014 26.8966 22.4346 27.2429 22.5597 27.5603C22.6848 27.8778 22.8968 28.1536 23.1714 28.356L22.7552 28.707C22.6709 28.7782 22.5674 28.8227 22.4578 28.835L18.3522 29.2991C18.2481 29.3108 18.1494 29.3516 18.0674 29.4167L9.81128 35.9732L10.5063 36.8484L18.6369 30.3916L22.5834 29.9455C22.9123 29.9086 23.2229 29.7749 23.4757 29.5613L23.9877 29.1295L25.8029 33.2114C25.9872 33.6252 26.3283 33.9488 26.7511 34.1112C27.174 34.2736 27.644 34.2614 28.0579 34.0774C28.4718 33.8933 28.7956 33.5524 28.9583 33.1297C29.1209 32.7069 29.1091 32.2369 28.9253 31.8229L26.8839 27.2325ZM19.3544 15.96L14.1886 4.34369C14.1559 4.27 14.1385 4.19039 14.1377 4.10975C14.1369 4.02911 14.1525 3.94915 14.1837 3.8748C14.215 3.80044 14.2611 3.73326 14.3192 3.67739C14.3774 3.62151 14.4463 3.57813 14.5219 3.54991C14.6629 3.49748 14.8186 3.50071 14.9573 3.55895C15.096 3.61718 15.2074 3.72605 15.2687 3.86342L20.3713 15.3376L19.3544 15.96ZM21.0904 14.2045L16.6218 4.15569L31.698 1.45928L21.0904 14.2045ZM20.4475 21.2359C20.4191 20.7767 20.3355 20.3226 20.1987 19.8833L21.9784 18.9763C22.3955 18.765 22.7526 18.4519 23.0165 18.0658C23.1382 18.105 23.2466 18.1772 23.3297 18.2744C23.4127 18.3716 23.4671 18.49 23.4867 18.6163C23.5064 18.7426 23.4905 18.8719 23.4409 18.9897C23.3913 19.1076 23.3099 19.2093 23.2058 19.2835L23.119 19.3455L23.1175 19.3465L20.5563 21.1735C20.522 21.1976 20.4856 21.2185 20.4475 21.2359ZM21.3894 23.3848C21.2567 23.3596 21.1343 23.296 21.0374 23.2018C20.9405 23.1077 20.8734 22.9871 20.8444 22.8552C20.8155 22.7232 20.8259 22.5857 20.8744 22.4596C20.923 22.3335 21.0075 22.2245 21.1175 22.146L21.2046 22.0839L21.2058 22.083L23.7675 20.2556C23.9165 20.1498 24.1014 20.1075 24.2815 20.1379C24.4617 20.1683 24.6224 20.269 24.7284 20.4179C24.8344 20.5667 24.8769 20.7515 24.8467 20.9317C24.8165 21.1119 24.716 21.2728 24.5673 21.3789L24.4805 21.4409L24.479 21.4419L21.9175 23.2692C21.842 23.3234 21.7562 23.3616 21.6654 23.3814C21.5746 23.4013 21.4807 23.4024 21.3894 23.3848ZM22.751 25.4802C22.6182 25.455 22.4958 25.3914 22.3989 25.2972C22.302 25.2031 22.2349 25.0826 22.2059 24.9506C22.177 24.8186 22.1874 24.6811 22.2359 24.555C22.2845 24.4289 22.369 24.3199 22.479 24.2414L22.5661 24.1793L22.5673 24.1784L25.129 22.351C25.278 22.2451 25.4629 22.2027 25.6432 22.2331C25.8234 22.2634 25.9842 22.3642 26.0902 22.5131C26.1962 22.662 26.2388 22.8468 26.2085 23.0271C26.1783 23.2074 26.0777 23.3682 25.9288 23.4743L25.842 23.5363L25.8405 23.5373L23.279 25.3646C23.2035 25.4188 23.1177 25.457 23.0269 25.4769C22.9361 25.4967 22.8422 25.4979 22.751 25.4802ZM24.1125 27.5756C23.9797 27.5504 23.8573 27.4868 23.7604 27.3927C23.6635 27.2985 23.5964 27.178 23.5674 27.046C23.5385 26.9141 23.5489 26.7765 23.5974 26.6504C23.646 26.5243 23.7305 26.4153 23.8405 26.3368L23.9276 26.2747L23.9288 26.2739L26.4905 24.4464C26.6395 24.3406 26.8244 24.2983 27.0046 24.3287C27.1847 24.3592 27.3454 24.4599 27.4514 24.6087C27.5574 24.7575 27.5999 24.9424 27.5697 25.1226C27.5395 25.3028 27.4391 25.4636 27.2903 25.5698L24.6413 27.4595C24.5657 27.5139 24.4798 27.5522 24.3889 27.5722C24.2979 27.5922 24.2039 27.5933 24.1125 27.5756ZM27.909 32.7458C27.8781 32.8204 27.8321 32.8877 27.7739 32.9437C27.7157 32.9996 27.6466 33.0429 27.5709 33.0708C27.4299 33.1232 27.2742 33.12 27.1354 33.0618C26.9967 33.0036 26.8853 32.8947 26.824 32.7573L24.9564 28.5576C25.074 28.5067 25.186 28.4436 25.2903 28.3693L25.9554 27.8949L27.9041 32.277C27.9372 32.3506 27.9547 32.4302 27.9556 32.5109C27.9564 32.5916 27.9406 32.6716 27.909 32.7458Z" fill="white"/>
<path d="M26.0682 14.9725L33.4636 10.762L34.0165 11.7331L26.6211 15.9437L26.0682 14.9725Z" fill="white"/>
<path d="M28.2448 19.1563L28.5263 18.0752L36.0555 20.036L35.7739 21.1171L28.2448 19.1563Z" fill="white"/>
<path d="M30.387 24.4588L30.9698 23.5056L36.404 26.828L35.8212 27.7812L30.387 24.4588Z" fill="white"/>
<path d="M28.4937 28.4958L29.3182 27.7413L34.4493 33.349L33.6248 34.1034L28.4937 28.4958Z" fill="white"/>
<path d="M7.63208 7.82986L8.37318 6.9937L13.9979 11.979L13.2568 12.8151L7.63208 7.82986Z" fill="white"/>
<path d="M3.48169 14.07L3.77719 12.993L12.4776 15.3799L12.1821 16.457L3.48169 14.07Z" fill="white"/>
<path d="M2.00208 19.8866L2.08303 18.7718L11.1566 19.4306L11.0756 20.5455L2.00208 19.8866Z" fill="white"/>
<path d="M3.72046 25.3424L10.1937 22.9205L10.5852 23.9671L4.11203 26.389L3.72046 25.3424Z" fill="white"/>
<path d="M24.9253 7.6001L23.8113 6.39192L24.1219 5.11197C24.1479 5.00457 24.1415 4.89186 24.1035 4.7881C24.0655 4.68433 23.9976 4.59416 23.9083 4.529C23.8191 4.46383 23.7125 4.42659 23.6021 4.42198C23.4917 4.41737 23.3824 4.4456 23.288 4.50311L22.2818 5.11643L21.1308 4.39528C21.0429 4.34017 20.9414 4.31064 20.8376 4.30999C20.7338 4.30934 20.6319 4.33761 20.5433 4.39162C20.4547 4.44562 20.3829 4.52324 20.3359 4.61577C20.2889 4.7083 20.2687 4.81208 20.2774 4.91549L20.391 6.26899L19.3848 6.88224C19.2905 6.93977 19.2153 7.02398 19.1688 7.12424C19.1223 7.22449 19.1065 7.33628 19.1236 7.44547C19.1406 7.55467 19.1896 7.65636 19.2644 7.7377C19.3392 7.81903 19.4365 7.87636 19.5439 7.90243L20.8239 8.21292L21.3874 9.75658C21.4262 9.86287 21.4964 9.95489 21.5886 10.0204C21.6809 10.086 21.7908 10.122 21.904 10.1237C21.9278 10.124 21.9516 10.1228 21.9752 10.1202C22.0756 10.1088 22.171 10.0704 22.2513 10.0091C22.3316 9.94787 22.3938 9.86597 22.4312 9.77217L22.9821 8.39257L24.4608 8.53501C24.5735 8.54586 24.6867 8.52226 24.7857 8.46734C24.8846 8.41241 24.9645 8.32875 25.0149 8.22741C25.0652 8.12607 25.0836 8.01184 25.0676 7.89982C25.0516 7.78781 25.002 7.68329 24.9253 7.6001ZM22.6722 7.24C22.5518 7.22839 22.431 7.25612 22.3277 7.31905C22.2245 7.38197 22.1445 7.47669 22.0997 7.58897L21.9357 7.9996L21.7711 7.54881C21.7396 7.46241 21.6872 7.38513 21.6186 7.32382C21.55 7.26252 21.4674 7.21909 21.378 7.19738L21.1184 7.1344L21.2676 7.04354C21.3562 6.98953 21.428 6.91191 21.475 6.81938C21.5219 6.72685 21.5422 6.62307 21.5335 6.51966L21.4845 5.93562L21.9811 6.24673C22.069 6.30183 22.1706 6.33135 22.2743 6.332C22.3781 6.33265 22.48 6.3044 22.5686 6.25041L22.7178 6.15941L22.6548 6.41914C22.6331 6.50853 22.6338 6.6019 22.6569 6.69094C22.68 6.77999 22.7246 6.86196 22.787 6.92959L23.1123 7.28238L22.6722 7.24Z" fill="white"/>
</svg>
